<?xml version="1.0" standalone="no"?>
<svg xmlns="http://www.w3.org/2000/svg" viewBox="0 0 1440 320">
  <path fill="#0099ff" fill-opacity="1" d="M0,128L26.7,112C53.3,96,107,64,160,85.3C213.3,107,267,181,320,192C373.3,203,427,149,480,144C533.3,139,587,181,640,176C693.3,171,747,117,800,85.3C853.3,53,907,43,960,58.7C1013.3,75,1067,117,1120,117.3C1173.3,117,1227,75,1280,64C1333.3,53,1387,75,1413,85.3L1440,96L1440,320L1413.3,320C1386.7,320,1333,320,1280,320C1226.7,320,1173,320,1120,320C1066.7,320,1013,320,960,320C906.7,320,853,320,800,320C746.7,320,693,320,640,320C586.7,320,533,320,480,320C426.7,320,373,320,320,320C266.7,320,213,320,160,320C106.7,320,53,320,27,320L0,320Z"></path>
</svg>