<?xml version="1.0" encoding="UTF-8" standalone="no"?>
<svg
   xmlns:dc="http://purl.org/dc/elements/1.1/"
   xmlns:cc="http://creativecommons.org/ns#"
   xmlns:rdf="http://www.w3.org/1999/02/22-rdf-syntax-ns#"
   xmlns:svg="http://www.w3.org/2000/svg"
   xmlns="http://www.w3.org/2000/svg"
   xmlns:xlink="http://www.w3.org/1999/xlink"
   xmlns:sodipodi="http://sodipodi.sourceforge.net/DTD/sodipodi-0.dtd"
   xmlns:inkscape="http://www.inkscape.org/namespaces/inkscape"
   id="a0c20882-2d18-455a-ade1-f7c359a0c63a"
   data-name="Layer 1"
   width="1109.2"
   height="849.77002"
   viewBox="0 0 1109.2 849.77"
   version="1.1"
   sodipodi:docname="hero_vector.svg"
   inkscape:version="1.0.2 (394de47547, 2021-03-26)">

   <style>
      .big-leaf {
         transform-origin: bottom;
         transform-box: fill-box;
         animation: big-leaf 3s ease-in-out infinite;
      }
      .leaf-top {
         transform-origin: bottom;
         transform-box: fill-box;
         animation: leaf-top 3s linear infinite;
      }
      .leaves-sect-1 {
         transform-origin: bottom;
         transform-box: fill-box;
         animation: group-1 3s ease-in-out infinite;
      }
      .leaves-sect-2 {
         transform-origin: bottom;
         transform-box: fill-box;
         animation: group-1 2s ease-in-out infinite;
      }

      .music-big-node {
         transform-origin: bottom;
         transform-box: fill-box;
         animation: group-1 3s ease-in-out infinite;
      }
      .music-short-node {
         transform-origin: bottom;
         transform-box: fill-box;
         animation: group-1 2s ease-in-out infinite;
      }
      #music-node {
         transform-origin: bottom;
         transform-box: fill-box;
         animation: giant-node 3s ease-in-out infinite;
      }

      #music-node:hover {
         animation: giant-node 1s linear infinite;
      }


      @keyframes big-leaf {
         0% {
            transform: rotateZ(0);
         }
         50% {
            transform: rotateZ(15deg);
         }
         100% {
            transform: rotateZ(0deg);
         }
      }
      @keyframes leaf-top {
         0% {
            transform: rotateZ(0);
         }
         25% {
            transform: rotateZ(15deg);
         }
         75% {
            transform: rotateZ(-15deg);
         }
         100% {
            transform: rotateZ(0deg);
         }
      }

      @keyframes group-1 {
         0% {
            transform: rotateZ(0);
         }
         50% {
            transform: rotateZ(15deg);
         }
         100% {
            transform: rotateZ(0deg);
         }
      }
      @keyframes giant-node {
         0% {
            transform: rotateZ(0);
         }
         25% {
            transform: rotateZ(2deg);
         }
         100% {
            transform: rotateZ(0deg);
         }
      }
   </style>


  <metadata
     id="metadata11335">
    <rdf:RDF>
      <cc:Work
         rdf:about="">
        <dc:format>image/svg+xml</dc:format>
        <dc:type
           rdf:resource="http://purl.org/dc/dcmitype/StillImage" />
        <dc:title>compose music</dc:title>
      </cc:Work>
    </rdf:RDF>
  </metadata>
  <sodipodi:namedview
     pagecolor="#ffffff"
     bordercolor="#666666"
     borderopacity="1"
     objecttolerance="10"
     gridtolerance="10"
     guidetolerance="10"
     inkscape:pageopacity="0"
     inkscape:pageshadow="2"
     inkscape:window-width="1366"
     inkscape:window-height="712"
     id="namedview11333"
     showgrid="false"
     inkscape:zoom="0.6"
     inkscape:cx="776.31182"
     inkscape:cy="413.97008"
     inkscape:window-x="0"
     inkscape:window-y="28"
     inkscape:window-maximized="1"
     inkscape:current-layer="a0c20882-2d18-455a-ade1-f7c359a0c63a"
     inkscape:document-rotation="0" />
  <defs
     id="defs10916">
    <linearGradient
       id="ad33f4e3-bf33-4b8e-8318-953234af509e"
       x1="837"
       y1="580.79999"
       x2="989.65997"
       y2="580.79999"
       gradientTransform="matrix(-1,0,0,1,1862,0)"
       gradientUnits="userSpaceOnUse">
      <stop
         offset="0"
         stop-color="gray"
         stop-opacity="0.25"
         id="stop10908" />
      <stop
         offset="0.54"
         stop-color="gray"
         stop-opacity="0.12"
         id="stop10910" />
      <stop
         offset="1"
         stop-color="gray"
         stop-opacity="0.1"
         id="stop10912" />
    </linearGradient>
    <linearGradient
       id="af5f6ae9-e1dc-4eac-800c-2506307954c8"
       x1="-106.89"
       y1="588.72998"
       x2="-106.89"
       y2="244.28"
       gradientTransform="matrix(-1,-0.04,-0.04,1,494.48,21.29)"
       xlink:href="#ad33f4e3-bf33-4b8e-8318-953234af509e" />
    <linearGradient
       id="24f03e8c-5c7e-4fae-8483-b5d808403054"
       x1="410.64999"
       y1="444.89999"
       x2="677"
       y2="444.89999"
       gradientUnits="userSpaceOnUse">
      <stop
         offset="0"
         stop-color="gray"
         stop-opacity="0.25"
         id="stop6002" />
      <stop
         offset="0.54"
         stop-color="gray"
         stop-opacity="0.12"
         id="stop6004" />
      <stop
         offset="1"
         stop-color="gray"
         stop-opacity="0.1"
         id="stop6006" />
    </linearGradient>
    <linearGradient
       id="00c9c3cb-352a-4ad1-9ec3-c89fe8d1d33c"
       x1="518.88"
       y1="466.38"
       x2="520.07001"
       y2="466.38"
       xlink:href="#24f03e8c-5c7e-4fae-8483-b5d808403054"
       gradientTransform="translate(269.31988,-6.3666456)" />
    <linearGradient
       id="120917fe-dde0-4ef5-b791-4b8cdc7eaea0"
       x1="519.81"
       y1="467.31"
       x2="521.01001"
       y2="467.31"
       xlink:href="#24f03e8c-5c7e-4fae-8483-b5d808403054"
       gradientTransform="translate(269.31988,-6.3666456)" />
    <linearGradient
       id="d6588c0b-28b1-4044-81f0-862b52dadcf0"
       x1="519.81"
       y1="466.38"
       x2="521.01001"
       y2="466.38"
       xlink:href="#24f03e8c-5c7e-4fae-8483-b5d808403054"
       gradientTransform="translate(269.31988,-6.3666456)" />
    <linearGradient
       inkscape:collect="always"
       xlink:href="#24f03e8c-5c7e-4fae-8483-b5d808403054"
       id="linearGradient11444"
       gradientUnits="userSpaceOnUse"
       x1="410.64999"
       y1="444.89999"
       x2="677"
       y2="444.89999"
       gradientTransform="translate(269.31988,-6.3666456)" />
  </defs>
  <title
     id="title10918">compose music</title>
  <circle
     cx="957.20569"
     cy="372.83698"
     r="21.629999"
     fill="#6c63ff"
     opacity="0.1"
     id="circle10920" />
  <circle
     cx="1062.95"
     cy="274.64999"
     r="36.25"
     fill="#6c63ff"
     opacity="0.1"
     id="circle10922" />
  <circle
     cx="455.32001"
     cy="27.780001"
     r="21.629999"
     fill="#6c63ff"
     opacity="0.1"
     id="circle10924" />
  <circle
     cx="703.42999"
     cy="52.639999"
     r="21.629999"
     fill="#6c63ff"
     opacity="0.1"
     id="circle10926" />
  <circle
     cx="36.25"
     cy="326.22"
     r="36.25"
     fill="#6c63ff"
     opacity="0.1"
     id="circle10928" />
  <path
     d="m 644.56591,121.30302 c -64.72,-2.41 -126.36,-24.849998 -185.22,-49.409998 -58.86,-24.56 -117.17,-51.75 -180.29,-64.7599998 -40.63,-8.37 -87.09,-9.56 -119.83,13.8399998 -31.55,22.56 -41.73,61.39 -47.17,97.449998 -4.12,27.14 -6.54,55.7 4.74,81.1 7.83,17.64 21.74,32.46 31.36,49.35 33.47,58.78 9.81,131.27 -26.46,188.66 -17,26.92 -36.739997,52.6 -49.869997,81.26 -13.13,28.66 -19.23,61.5 -7.77,90.74 11.38,29 38.509997,50.74 67.899997,66 59.69,31.09 130,40 198.61,45 151.82,11.16 304.46,6.33 456.69,1.49 56.33,-1.79 112.92,-3.61 168.34,-13 30.78,-5.2 62.54999,-13.45 84.88999,-33.36 28.37,-25.27 35.4,-68.07 16.39,-99.76 -31.88,-53.16 -119.99999,-66.37 -142.30999,-123.42 -12.26,-31.4 0.33,-66.38 18.16,-95.5 38.23,-62.48 102.32999,-117.29 105.69999,-188.71 2.32,-49 -28.49,-98.159998 -76.12999,-121.369998 -49.94,-24.33 -119.18,-21.27 -156,19 -37.92,41.629998 -104.59,57.539998 -161.73,55.399998 z"
     fill="#6c63ff"
     opacity="0.1"
     id="path10930" />
  <path
     d="m 1110.573,691.67481 c -10.6692,5.4994 -21.8477,10.24956 -32.8765,14.98474 -40.7435,17.20248 -82.10138,34.55481 -125.8718,40.45879 -82.20628,10.93886 -167.03488,-19.03061 -247.80262,-0.32966 -67.6561,15.6141 -123.60911,63.46037 -189.70679,84.76866 -30.7337,9.90492 -62.71113,13.78596 -94.97327,13.78596 h -4.16576 q -5.9939,-0.0749 -11.89788,-0.29969 C 370.56669,843.81486 337.72015,838.97479 305.65281,832.78609 204.40089,813.30593 101.35084,777.5973 23.939677,711.85925 249.34012,670.68119 713.64228,607.47557 1110.573,691.67481 Z"
     fill="#252223"
     opacity="0.1"
     id="path6018"
     style="stroke-width:1.49847;opacity:1;fill:#d4d4d4;fill-opacity:1" />
  <g
     id="plant"
     transform="matrix(0.6219522,0,0,0.6219522,589.57241,269.21312)">
    <rect
       x="-740.41998"
       y="-369.25208"
       width="42"
       height="24"
       transform="scale(-1)"
       fill="#ffffff"
       opacity="0.4"
       id="rect6032" />
    <rect
       x="-740.41998"
       y="-416.25208"
       width="42"
       height="24"
       transform="scale(-1)"
       fill="#ffffff"
       opacity="0.4"
       id="rect6036" />
    <rect
       x="-740.41998"
       y="-463.25208"
       width="42"
       height="24"
       transform="scale(-1)"
       fill="#ffffff"
       opacity="0.4"
       id="rect6040" />
    <rect
       x="-740.41998"
       y="-510.25208"
       width="42"
       height="24"
       transform="scale(-1)"
       fill="#ffffff"
       opacity="0.4"
       id="rect6044" />
    <rect
       x="-740.41998"
       y="-557.25208"
       width="42"
       height="24"
       transform="scale(-1)"
       fill="#ffffff"
       opacity="0.4"
       id="rect6048" />
    <path
       d="m 635.08996,557.80207 c 0,0 -78.73,47.5 66.4,120.63 0,0 32,-59.36 -3.38,-107.76 a 47.66,47.66 0 0 0 -61.83,-13.55 z"
       fill="#f9a826"
       id="path6112"
       class="big-leaf" />
    <path
       d="m 635.99996,556.80207 c 0,0 67.37,51.55 65.49,121.63"
       fill="none"
       stroke="#535461"
       stroke-miterlimit="10"
       id="path6114"
       class="big-leaf" />
    <path
       d="m 705.14996,681.13207 c 0,0 -24.67,-83.76 4.63,-145.41 12.3,-25.87 16.38,-54.92 10.7,-83 a 222.5,222.5 0 0 0 -11.75,-39"
       fill="none"
       stroke="#535461"
       stroke-miterlimit="10"
       stroke-width="2"
       id="path6116" />
    <path
       d="m 726.91996,374.81207 c 0,10.27 -18.59,40 -18.59,40 0,0 -18.59,-29.77 -18.59,-40 a 18.59,18.59 0 1 1 37.17,0 z"
       fill="#f9a826"
       id="path6118"
       class="leaf-top" />
    <path
       d="m 757.67996,431.67207 c -5.58,8.62 -37.36,23.5 -37.36,23.5 0,0 0.58,-35.09 6.16,-43.71 a 18.59,18.59 0 0 1 31.2,20.2 z"
       fill="#f9a826"
       id="path6120"
       class="leaves-sect-2" />
    <path
       d="m 756.32996,528.84207 c -9.17,4.62 -44.11,1.43 -44.11,1.43 0,0 18.21,-30 27.38,-34.62 a 18.59,18.59 0 0 1 16.74,33.19 z"
       fill="#f9a826"
       id="path6122"
       class="leaves-sect-1" />
    <path
       d="m 738.75996,602.13207 c -8.25,6.1 -43.24,8.86 -43.24,8.86 0,0 12.88,-32.64 21.13,-38.75 a 18.59,18.59 0 1 1 22.11,29.89 z"
       fill="#f9a826"
       id="path6124"
       class="leave-sect-2" />
    <path
       d="m 681.28996,457.16207 c 7.36,7.15 41.67,14.56 41.67,14.56 0,0 -8.4,-34.07 -15.76,-41.23 a 18.59,18.59 0 1 0 -25.9,26.66 z"
       fill="#f9a826"
       id="path6126"
       class="leaves-sect-1" />
    <path
       d="m 661.82996,543.13207 c 9.17,4.62 44.11,1.43 44.11,1.43 0,0 -18.21,-30 -27.38,-34.62 a 18.59,18.59 0 0 0 -16.74,33.19 z"
       fill="#f9a826"
       id="path6128"
       class="leaves-sect-2" />
    <path
       d="m 654.37996,629.29207 c 8.25,6.1 43.24,8.86 43.24,8.86 0,0 -12.88,-32.65 -21.14,-38.75 a 18.59,18.59 0 0 0 -22.11,29.89 z"
       fill="#f9a826"
       id="path6130"
       class="leaves-sect-1" />
    <path
       d="m 726.91996,374.81207 c 0,10.27 -18.59,40 -18.59,40 0,0 -18.59,-29.77 -18.59,-40 a 18.59,18.59 0 1 1 37.17,0 z"
       opacity="0.25"
       id="path6132"
       class="leaf-top" />
    <path
       d="m 757.67996,431.67207 c -5.58,8.62 -37.36,23.5 -37.36,23.5 0,0 0.58,-35.09 6.16,-43.71 a 18.59,18.59 0 0 1 31.2,20.2 z"
       opacity="0.25"
       id="path6134"
       class="leaves-sect-2" />
    <path
       d="m 756.32996,528.84207 c -9.17,4.62 -44.11,1.43 -44.11,1.43 0,0 18.21,-30 27.38,-34.62 a 18.59,18.59 0 0 1 16.74,33.19 z"
       opacity="0.25"
       id="path6136"
       class="leaves-sect-1" />
    <path
       d="m 738.75996,602.13207 c -8.25,6.1 -43.24,8.86 -43.24,8.86 0,0 12.88,-32.64 21.13,-38.75 a 18.59,18.59 0 1 1 22.11,29.89 z"
       opacity="0.25"
       id="path6138"
       class="leaves-sect-2" />
    <path
       d="m 681.28996,457.16207 c 7.36,7.15 41.67,14.56 41.67,14.56 0,0 -8.4,-34.07 -15.76,-41.23 a 18.59,18.59 0 1 0 -25.9,26.66 z"
       opacity="0.25"
       id="path6140"
       class="leaves-sect-1" />
    <path
       d="m 661.82996,543.13207 c 9.17,4.62 44.11,1.43 44.11,1.43 0,0 -18.21,-30 -27.38,-34.62 a 18.59,18.59 0 0 0 -16.74,33.19 z"
       opacity="0.25"
       id="path6142"
       class="leaves-sect-2" />
    <path
       d="m 654.37996,629.29207 c 8.25,6.1 43.24,8.86 43.24,8.86 0,0 -12.88,-32.65 -21.14,-38.75 a 18.59,18.59 0 0 0 -22.11,29.89 z"
       opacity="0.25"
       id="path6144"
       class="leaves-sect-1" />
  </g>
  <path
     d="m 385.06833,83.994046 0.0476,-0.008 -6.992,-40.87642 -38.663,12.28283 5.78484,36.56086 a 9.93467,9.93467 0 1 0 3.9919,4.90622 l 0.0355,-0.006 -6.20829,-39.23624 32.515,-10.32968 5.5272,32.31292 a 9.91405,9.91405 0 1 0 3.96119,4.39328 z"
     fill="#f9a826"
     id="path6523"
     class="music-big-node" />
  <path
     d="m 570.16738,97.635986 0.048,-0.008 -6.992,-40.87642 -38.663,12.28283 5.7848,36.560864 a 9.93471,9.93471 0 1 0 3.9919,4.90623 l 0.035,-0.006 -6.2082,-39.236244 32.515,-10.32968 5.5272,32.31292 a 9.914,9.914 0 1 0 3.9612,4.39328 z"
     fill="#f9a826"
     id="path6525"
     class="music-big-node" />
  <path
     d="m 437.86928,128.96687 0.0276,-0.004 -4.9812,-31.481074 -2.46,0.38915 4.31829,27.292054 a 7.70307,7.70307 0 1 0 3.09536,3.80422 z"
     fill="#f9a826"
     id="path6527"
     class="music-short-node" />
  <path
     d="m 480.1286,89.882286 a 7.689,7.689 0 1 0 -3.5865,6.48514 l -4.3183,27.292004 2.46,0.38915 4.9812,-31.481144 -0.0276,-0.004 a 7.63758,7.63758 0 0 0 0.49116,-2.68081 z"
     fill="#f9a826"
     id="path6529"
     class="music-short-node" />
  <path
     d="m 80.265334,699.36154 48.137136,-68.89837 -48.175083,76.40222 -0.04212,7.84867 q -5.135772,-0.0524 -10.167349,-0.35244 l 4.125084,-100.82554 -0.04987,-0.77929 0.0885,-0.14882 0.392628,-9.52735 -50.023528,-75.47548 50.090217,68.34073 0.146087,2.01787 3.116158,-76.17762 -42.976732,-78.09226 43.341864,64.70677 2.352106,-157.89365 0.01036,-0.52548 0.0058,0.51708 0.724727,124.48743 41.326521,-49.82441 -41.385396,60.54657 -0.333688,68.18292 38.385944,-65.86499 -38.428001,75.88915 -0.185006,37.91314 55.750797,-91.7085 -55.82222,104.93465 z"
     fill="#575a89"
     id="path6517"
     style="stroke-width:0.724887" />
  <g
     id="music-node">
    <path
       d="m 564.33873,249.62531 -61.70875,273.87814 a 92.992637,92.992637 0 0 0 -27.29458,-10.7316 c -40.72121,-9.17508 -80.28403,12.18968 -89.45912,52.9109 -9.17508,40.72121 17.47418,76.66991 58.1954,85.84499 40.72121,9.17508 80.75126,-13.31135 90.55372,-56.81699 l 42.85263,-190.1902 214.75194,48.38675 -29.12956,129.28394 a 92.950786,92.950786 0 0 0 -27.29458,-10.73159 c -40.72121,-9.17509 -80.28403,12.18968 -89.45912,52.91089 -9.17508,40.72122 17.47418,76.66991 58.19539,85.84499 40.72122,9.17509 80.75127,-13.31134 90.55373,-56.81698 l 75.43181,-334.78441 z m 237.48109,160.75805 -214.75195,-48.38675 12.69463,-56.34177 214.75194,48.38675 z"
       fill="#f9a826"
       id="path15595"
       style="fill:#dad7ff;fill-opacity:1;stroke-width:0.837017" />
    <g
       opacity="0.1"
       id="g15715"
       transform="matrix(0.81654732,0.18398004,-0.18398004,0.81654732,173.28155,22.466818)">
      <path
         d="m 871.84,420.25 h -263 v 232.94 c 0,53.26 -40.75,90 -90.62,90 a 100.13,100.13 0 0 1 -34.82,-6.11 97.54,97.54 0 0 0 47.82,12.11 c 49.87,0 90.62,-36.72 90.62,-90 V 426.25 h 250 z"
         transform="translate(-50.4,-87.11)"
         id="path15709" />
      <polygon
         points="571.42,281.05 571.42,218.04 821.44,218.04 821.44,212.04 558.42,212.04 558.42,281.05 "
         id="polygon15711" />
      <path
         d="m 927.83,249.17 v 404 c 0,53.26 -40.75,90 -90.62,90 a 100.13,100.13 0 0 1 -34.82,-6.11 97.54,97.54 0 0 0 47.82,12.11 c 49.87,0 90.62,-36.72 90.62,-90 v -410 z"
         transform="translate(-50.4,-87.11)"
         id="path15713" />
    </g>
  </g>
  <g
     id="g17000">
    <rect
       x="-801.81982"
       y="-410.38336"
       width="27"
       height="35"
       transform="scale(-1)"
       fill="#ffffff"
       opacity="0.4"
       id="rect6070" />
    <rect
       x="-801.81982"
       y="-466.38333"
       width="27"
       height="35"
       transform="scale(-1)"
       fill="#ffffff"
       opacity="0.4"
       id="rect6074" />
    <rect
       x="-801.81982"
       y="-522.38336"
       width="27"
       height="35"
       transform="scale(-1)"
       fill="#ffffff"
       opacity="0.4"
       id="rect6078" />
    <rect
       x="-801.81982"
       y="-578.38336"
       width="27"
       height="35"
       transform="scale(-1)"
       fill="#ffffff"
       opacity="0.4"
       id="rect6082" />
    <path
       d="m 940.01986,670.06335 h 0.22 c 0,0 -35.09,-96.43 -44.92,-109.5 0,0 -10.29,-6.08 -9.82,-16.37 l -12.63,-61.28 c 0,0 0.19,-0.19 0.51,-0.54 l 0.27,-0.3 0.31,-0.36 a 29.35,29.35 0 0 0 4.19,-6.59 l 0.2,-0.46 a 25.27,25.27 0 0 0 1.18,-3.31 3.49,3.49 0 0 0 2.69,-0.14 c 0,0 0,-0.33 0,-0.92 v 0 c 0,0 -0.12,-3.63 -0.13,-9.31 0,-1.58 0,-3.3 0,-5.13 0.39,-1.41 0.72,-2.89 1,-4.47 l -0.51,-0.24 v -0.23 l -0.43,-0.2 c 0.35,-13.45 1.49,-30.64 4.78,-42.35 q 0.17,-0.62 0.36,-1.23 c 3.89,-12.79 4,-28.4 5,-41.6 a 42.42,42.42 0 0 1 2,5.11 7.81,7.81 0 0 1 1.69,-1.43 l 3.92,31.37 v 37 c 0,0 -6.55,47.72 14,38.83 20.55,-8.89 5.61,-41.64 5.61,-41.64 0,0 0,-18.24 2.81,-27.6 1.85,-6.16 0.66,-26.08 -0.38,-39 2,0.35 3.18,0.63 3.18,0.63 a 21.88,21.88 0 0 0 0.61,-5.73 c 0.43,-21.57 -26.17,-56.32 -37,-69.58 a 31.09,31.09 0 0 0 -12.49,-11 l -20.81,-10.08 c 0,0 -9.83,-2.4 -13.66,-10 0,-0.13 -0.07,-0.26 -0.1,-0.39 q 0.65,-0.29 1.28,-0.63 a 23.06,23.06 0 0 0 8.14,-6.54 c 4.43,-5.63 6.55,-12.68 8.57,-19.55 2.38,-8.08 4.78,-16.33 4.46,-24.75 -0.32,-8.42 -3.86,-17.17 -11,-21.64 -6.1,-3.82 -14.61,-4.54 -18.4,-10.66 -1,-1.65 -1.64,-3.61 -3,-4.94 a 1.14,1.14 0 0 0 -0.92,-1.18 l -10.48,-2.06 a 1.14,1.14 0 0 0 -1.34,0.9 v 0.15 a 63.38,63.38 0 0 0 -26.93,6.84 61.28,61.28 0 0 0 -8.52,5 c -3.85,2.72 -7.64,6.33 -8.19,11 -0.27,2.33 0.29,4.72 -0.18,7 -1.27,6.11 -9.46,10.09 -8.26,16.22 0.81,4.16 5.52,5.95 9.93,6 a 33.22,33.22 0 0 0 25.25,41.48 95.94,95.94 0 0 1 8.4,14.3 c -5.39,5.12 -16.68,17 -9.76,21 l -14.4,35.58 1.4,36.67 -6.07,5.42 1.33,1.66 c -6.8,7.92 -22.54,25.23 -34.05,29.84 a 35.58,35.58 0 0 0 -4.8,2.36 19.37,19.37 0 0 1 -6.89,2.7 19,19 0 0 0 -3.16,0.62 l -2.75,-5.7 a 4.1,4.1 0 0 0 -5.48,-1.91 l -1.69,0.81 v 0 l -4,1.93 -1.67,0.81 v 0 l -1.26,0.61 a 4.1,4.1 0 0 0 -1.91,5.47 l 3.33,6.9 c -4.73,4.17 -7.05,9.15 -0.6,13.79 a 14,14 0 0 0 8.55,2.7 l 2,4.19 a 4.1,4.1 0 0 0 5.48,1.91 l 2.93,-1.42 5.68,-2.74 a 4.1,4.1 0 0 0 1.91,-5.48 l -1.66,-3.45 a 67.68,67.68 0 0 0 10.16,-9.75 c 0,0 8.54,-5.35 13.57,-6.55 3.33,-0.79 15,-8.46 22.24,-13.32 l 2.06,54 a 11.46,11.46 0 0 1 -1.58,1.94 l 1.61,-1.14 v 0.4 a 8.91,8.91 0 0 1 -0.69,0.74 l 0.7,-0.5 v 0.65 a 9,9 0 0 1 -0.73,0.78 l 0.74,-0.52 0.3,5.67 3.52,-5.84 0.22,5.84 0.82,-1.36 c -9.88,16.79 -22.75,41.51 -29.63,66.38 0,0 -10.76,18.71 -9.36,37.89 l -19.65,95 0.38,0.14 c -6.4,4.62 -19.89,13.09 -33.12,13.43 0,0 -31.81,-0.94 -22.92,6.08 8.89,7.02 87.95,17.31 87.95,17.31 l 3,-23.65 0.7,0.26 c 0,0 0,-0.13 0,-0.37 l 1,0.37 c 0,0 -1.91,-11.76 5.09,-18.31 7,-6.55 23.39,-73 22,-83.27 0,0 12.56,-31.39 28.28,-56.42 l 18.48,47.52 20.58,35.55 c 0,0 27.38,60.88 26.5,74.44 -5.75,7 -16,18 -23.69,17.71 0,0 -31.34,6.08 -9.82,11.7 21.52,5.62 84.67,-15.4 84.67,-15.4 z m -137,-217.66 0.19,-0.11 c -1,1.51 -2,3.18 -3.14,5 z"
       fill="url(#24f03e8c-5c7e-4fae-8483-b5d808403054)"
       id="path6184"
       style="fill:url(#linearGradient11444)" />
    <path
       d="m 789.38986,459.57335 c -0.77,0.56 -1.19,0.87 -1.19,0.87 a 5.07,5.07 0 0 0 1.19,-0.87 z"
       fill="url(#00c9c3cb-352a-4ad1-9ec3-c89fe8d1d33c)"
       id="path6186"
       style="fill:url(#00c9c3cb-352a-4ad1-9ec3-c89fe8d1d33c)" />
    <path
       d="m 790.31986,460.51335 c -0.77,0.56 -1.19,0.87 -1.19,0.87 a 5.07,5.07 0 0 0 1.19,-0.87 z"
       fill="url(#120917fe-dde0-4ef5-b791-4b8cdc7eaea0)"
       id="path6188"
       style="fill:url(#120917fe-dde0-4ef5-b791-4b8cdc7eaea0)" />
    <path
       d="m 790.31986,459.57335 c -0.77,0.56 -1.19,0.87 -1.19,0.87 a 5.07,5.07 0 0 0 1.19,-0.87 z"
       fill="url(#d6588c0b-28b1-4044-81f0-862b52dadcf0)"
       id="path6190"
       style="fill:url(#d6588c0b-28b1-4044-81f0-862b52dadcf0)" />
    <path
       d="m 897.36986,665.13335 c 0,0 -16.42,23.26 -27.37,22.8 0,0 -30.56,5.93 -9.58,11.4 20.98,5.47 82.55,-15.05 82.55,-15.05 l -7.32,-23.85 z"
       fill="#333333"
       id="path6192" />
    <path
       d="m 823.93986,503.63335 23.26,59.75 20.12,34.71 c 0,0 27.59,61.34 25.77,73.2 l 44,-7.07 c 0,0 -34.21,-94 -43.78,-106.72 0,0 -10,-5.93 -9.58,-16 l -12.31,-59.75 c 0,0 12,-11.56 5.28,-26 q -0.51,-1.11 -1.18,-2.24 c -9.2,-15.51 -43.82,-6.88 -43.82,-6.88 z"
       fill="#535461"
       id="path6194" />
    <path
       d="m 823.93986,503.63335 23.26,59.75 20.12,34.71 c 0,0 27.59,61.34 25.77,73.2 l 44,-7.07 c 0,0 -34.21,-94 -43.78,-106.72 0,0 -10,-5.93 -9.58,-16 l -12.31,-59.75 c 0,0 12,-11.56 5.28,-26 q -0.51,-1.11 -1.18,-2.24 c -9.2,-15.51 -43.82,-6.88 -43.82,-6.88 z"
       opacity="0.03"
       id="path6196" />
    <g
       opacity="0.1"
       id="g6200"
       transform="translate(391.81988,103.38335)">
      <path
         d="m 623.95,563.87 c 0,0 -10,-5.93 -9.58,-16 l -12.31,-59.75 c 0,0 12,-11.56 5.28,-26 q -0.51,-1.11 -1.18,-2.24 c -4.42,-7.52 -14.86,-9.36 -24.43,-9.25 9.18,0.08 18.84,2.09 23.06,9.25 q 0.67,1.13 1.18,2.24 c 6.69,14.48 -5.28,26 -5.28,26 L 613,547.9 c -0.46,10 9.58,16 9.58,16 9.58,12.77 43.78,106.72 43.78,106.72 l -42.62,6.85 c 0,0.07 0,0.15 0,0.22 l 44,-7.07 c 0,0 -34.21,-93.98 -43.79,-106.75 z"
         transform="translate(-122.5,-109.75)"
         id="path6198" />
    </g>
    <path
       d="m 743.21986,655.10335 c 0,0 -18.24,15.51 -36,16 0,0 -31,-0.91 -22.35,5.93 8.65,6.84 85.74,16.88 85.74,16.88 l 3.43,-26.69 z"
       fill="#333333"
       id="path6202" />
    <g
       opacity="0.1"
       id="g6206"
       transform="translate(391.81988,103.38335)">
      <path
         d="m 540.94,449.39 c 0,0 -30.1,42.42 -42,85.29 0,0 -10.49,18.24 -9.12,36.94 l -19.12,92.59 35.12,13.23 c 0,0 -1.82,-11.4 5,-17.79 6.82,-6.39 22.8,-71.15 21.44,-81.18 0,0 21.89,-54.73 43.78,-76.17 21.89,-21.44 32.79,-26.38 36,-44.89 0.02,0 -51.49,-24.9 -71.1,-8.02 z"
         transform="translate(-122.5,-109.75)"
         id="path6204" />
    </g>
    <path
       d="m 809.31986,443.02335 c 0,0 -30.1,42.42 -42,85.29 0,0 -10.49,18.24 -9.12,36.94 l -19.16,92.59 35.12,13.23 c 0,0 -1.82,-11.4 5,-17.79 6.82,-6.39 22.8,-71.15 21.44,-81.18 0,0 21.89,-54.73 43.78,-76.17 21.89,-21.44 32.79,-26.38 36,-44.89 0.09,0 -51.42,-24.9 -71.06,-8.02 z"
       fill="#535461"
       id="path6208" />
    <g
       opacity="0.1"
       id="g6212"
       transform="translate(391.81988,103.38335)">
      <path
         d="m 559.47,443.07 c 22.61,0.27 50.77,13.88 50.77,13.88 -3.22,18.51 -14.11,23.45 -36,44.89 -21.89,21.44 -43.79,76.16 -43.79,76.16 1.37,10 -14.59,74.8 -21.44,81.18 -6,5.56 -5.34,14.91 -5.09,17.25 l 1.44,0.54 c 0,0 -1.82,-11.4 5,-17.79 6.82,-6.39 22.83,-71.18 21.46,-81.18 0,0 21.89,-54.73 43.78,-76.17 21.89,-21.44 32.79,-26.38 36,-44.89 0.01,0.06 -29.31,-14.15 -52.13,-13.87 z"
         transform="translate(-122.5,-109.75)"
         id="path6210" />
    </g>
    <path
       d="m 786.99986,376.89335 c 0,0 -21.77,27.11 -36.46,33 a 34.69,34.69 0 0 0 -4.68,2.3 18.89,18.89 0 0 1 -6.72,2.63 16.47,16.47 0 0 0 -5.09,1.34 c -7.64,3.52 -25.26,13 -13.63,21.4 14.59,10.49 34.21,-13.68 34.21,-13.68 0,0 8.33,-5.22 13.23,-6.39 4.9,-1.17 27.35,-16.86 27.35,-16.86 z"
       fill="#fda57d"
       id="path6214" />
    <polygon
       points="399.28,268.03 390.62,275.79 403.39,291.75 "
       fill="#4d8af0"
       id="polygon6216"
       transform="translate(391.81988,103.38335)" />
    <g
       opacity="0.1"
       id="g6220"
       transform="translate(391.81988,103.38335)">
      <polygon
         points="399.28,268.03 390.62,275.79 403.39,291.75 "
         id="polygon6218" />
    </g>
    <path
       d="m 813.05986,280.63335 c 0,0 -20.76,17.79 -12.07,22.8 l -14,34.66 4.83,126.79 19.79,-32.84 -13.52,-71.15 c 0,0 -3.86,-42.42 7.24,-52.45 l 10.62,-21 z"
       fill="#4d8af0"
       id="path6222" />
    <g
       opacity="0.1"
       id="g6226"
       transform="translate(391.81988,103.38335)">
      <path
         d="m 547.39,287 c 0,0 -20.76,17.79 -12.07,22.8 l -14,34.66 4.83,126.79 19.79,-32.84 -13.52,-71.15 c 0,0 -3.86,-42.42 7.24,-52.45 l 10.62,-21 z"
         transform="translate(-122.5,-109.75)"
         id="path6224" />
    </g>
    <path
       d="m 797.02986,261.95335 c 0,0 16.88,20.52 16.42,32.38 -0.46,11.86 31.93,-20.52 31.93,-20.52 0,0 -12.31,-15.05 -9.12,-31 3.19,-15.95 -39.23,19.14 -39.23,19.14 z"
       fill="#fda57d"
       id="path6228" />
    <path
       d="m 893.26986,365.03335 4.56,36.49 v 36 c 0,0 -6.39,46.52 13.68,37.86 20.07,-8.66 5.47,-40.59 5.47,-40.59 0,0 0,-17.79 2.74,-26.91 2.74,-9.12 -1.4,-49.25 -1.4,-49.25 z"
       fill="#fda57d"
       id="path6230" />
    <path
       d="m 830.77986,278.83335 c 0,0 -12.31,11.86 -18.7,7.75 l -8.76,21.77 a 100,100 0 0 0 -7.12,41.94 l 3.12,82.24 13.68,-1.82 4.56,-78 6.84,-47.43 z"
       fill="#f2f2f2"
       id="path6232" />
    <g
       opacity="0.1"
       id="g6236"
       transform="translate(391.81988,103.38335)">
      <path
         d="m 571.73,272.66 c 0,0 -16.2,11.17 -20.73,20.75 0,0 -0.46,10.49 -4.1,15.05 -3.64,4.56 -7.3,27.37 -8.21,54.73 -0.91,27.36 -5,63.85 -5,63.85 0,0 -6.84,35.57 -14.14,39.22 0,0 33.75,-25.54 50.17,-16.88 16.42,8.66 35.12,29.65 40.59,26.45 0,0 -1.32,-40 4.67,-61.29 q 0.17,-0.61 0.35,-1.19 c 6.39,-21 2.28,-49.71 9.58,-62 0,0 0,-22.29 -4.21,-38.94 a 30.09,30.09 0 0 0 -16.1,-19.65 l -20.28,-9.82 c 0,0 -10.77,-1.62 -12.59,-10.28 z"
         transform="translate(-122.5,-109.75)"
         id="path6234" />
    </g>
    <g
       opacity="0.1"
       id="g6240"
       transform="translate(391.81988,103.38335)">
      <path
         d="m 571.73,272.66 c 0,0 -15.28,12.09 -19.84,21.66 0,0 -0.46,10.49 -4.1,15.05 -3.64,4.56 -7.3,27.37 -8.21,54.73 -0.91,27.36 -5,63.85 -5,63.85 0,0 -6.84,35.57 -14.14,39.22 0,0 33.75,-25.54 50.17,-16.88 16.42,8.66 35.12,29.65 40.59,26.45 0,0 -1.32,-40 4.67,-61.29 q 0.17,-0.61 0.35,-1.19 c 6.39,-21 2.28,-49.71 9.58,-62 0,0 0,-22.29 -4.21,-38.94 a 30.09,30.09 0 0 0 -16.1,-19.65 l -20.28,-9.82 c 0,0 -11.66,-2.53 -13.48,-11.19 z"
         transform="translate(-122.5,-109.75)"
         id="path6238" />
    </g>
    <path
       d="m 840.81986,266.06335 c 0,0 -15.05,11.4 -19.61,21 0,0 -0.46,10.49 -4.1,15.05 -3.64,4.56 -7.3,27.37 -8.21,54.73 -0.91,27.36 -5,63.85 -5,63.85 0,0 -6.84,35.57 -14.14,39.22 0,0 33.75,-25.54 50.17,-16.88 16.42,8.66 35.09,29.6 40.57,26.44 0,0 -1.32,-40 4.67,-61.29 q 0.17,-0.61 0.35,-1.19 c 6.39,-21 2.28,-49.71 9.58,-62 0,0 0,-22.29 -4.21,-38.94 a 30.09,30.09 0 0 0 -16.1,-19.65 l -20.28,-9.82 c 0,0 -10.27,-2.54 -13.69,-10.52 z"
       fill="#4d8af0"
       id="path6242" />
    <g
       opacity="0.1"
       id="g6246"
       transform="translate(391.81988,103.38335)">
      <path
         d="m 613.23,299.11 c 0,0 46.29,52.68 39.91,77.76 0,0 -23.72,-5.47 -30.1,1.82 0,0 -5,-16.88 -20.07,-26.45 -15.07,-9.57 -28.97,-70.92 10.26,-53.13 z"
         transform="translate(-122.5,-109.75)"
         id="path6244" />
    </g>
    <path
       d="m 882.54986,291.83335 c 0,0 46.29,52.68 39.91,77.76 0,0 -23.72,-5.47 -30.1,1.82 0,0 -5,-16.88 -20.07,-26.45 -15.07,-9.57 -28.97,-70.92 10.26,-53.13 z"
       fill="#4d8af0"
       id="path6248" />
    <g
       opacity="0.1"
       id="g6252"
       transform="translate(391.81988,103.38335)">
      <path
         d="m 568.08,259.43 c -0.72,-3.68 -0.12,-4 0.68,-8 3.19,-16 -39.22,19.16 -39.22,19.16 0,0 2.36,2.87 5.29,7.09 a 32.52,32.52 0 0 0 6.57,0.67 c 11.6,0.01 20.95,-9.78 26.68,-18.92 z"
         transform="translate(-122.5,-109.75)"
         id="path6250" />
    </g>
    <circle
       cx="808.88989"
       cy="237.32335"
       r="32.380001"
       fill="#fda57d"
       id="circle6254" />
    <g
       opacity="0.1"
       id="g6258"
       transform="translate(391.81988,103.38335)">
      <path
         d="m 510.48,234.83 c -4.77,0.64 -10.85,-1 -11.77,-5.67 -1.16,-6 6.82,-9.85 8.06,-15.81 0.46,-2.24 -0.09,-4.57 0.18,-6.83 0.54,-4.57 4.23,-8.08 8,-10.74 a 61.41,61.41 0 0 1 40.84,-10.88 9.17,9.17 0 0 1 5.06,1.6 c 1.57,1.29 2.18,3.39 3.25,5.12 3.7,6 12,6.67 17.94,10.39 7,4.35 10.41,12.89 10.72,21.09 0.31,8.2 -2,16.25 -4.35,24.13 -2,6.7 -4,13.58 -8.36,19.06 -4.36,5.48 -11.49,9.32 -18.28,7.67 3.11,-2.24 0.85,-7.44 -2.52,-9.27 -3.37,-1.83 -7.55,-2.14 -10.43,-4.66 -2.88,-2.52 -3.74,-6.64 -4.68,-10.39 -1.18,-4.73 -2.9,-9.53 -6.35,-13 -6.79,-6.75 -19,-2.93 -27.31,-1.81 z"
         transform="translate(-122.5,-109.75)"
         id="path6256" />
    </g>
    <path
       d="m 780.70986,228.01335 c -4.77,0.64 -10.85,-1 -11.77,-5.67 -1.16,-6 6.82,-9.85 8.06,-15.81 0.46,-2.24 -0.09,-4.57 0.18,-6.83 0.54,-4.57 4.23,-8.08 8,-10.74 a 61.41,61.41 0 0 1 40.84,-10.88 9.17,9.17 0 0 1 5.06,1.6 c 1.57,1.29 2.18,3.39 3.25,5.12 3.7,6 12,6.67 17.94,10.39 7,4.35 10.41,12.89 10.72,21.09 0.31,8.2 -2,16.25 -4.35,24.13 -2,6.7 -4,13.58 -8.36,19.06 -4.36,5.48 -11.49,9.32 -18.28,7.67 3.11,-2.24 0.85,-7.44 -2.52,-9.27 -3.37,-1.83 -7.55,-2.14 -10.43,-4.66 -2.88,-2.52 -3.73,-6.64 -4.73,-10.39 -1.18,-4.73 -2.9,-9.53 -6.35,-13 -6.73,-6.76 -18.95,-2.93 -27.26,-1.81 z"
       fill="#72351c"
       id="path6260" />
    <path
       d="m 828.43986,195.15335 2.93,-15 a 1.11,1.11 0 0 0 -0.88,-1.31 l -10.35,-2 a 1.11,1.11 0 0 0 -1.31,0.88 l -2.93,15 -10,37.08 18.35,3.58 z"
       fill="#cbdae3"
       id="path6262" />
    <g
       opacity="0.1"
       id="g6266"
       transform="translate(391.81988,103.38335)">
      <circle
         cx="421.39999"
         cy="134.63"
         r="15.96"
         id="circle6264" />
    </g>
    <circle
       cx="813.21985"
       cy="238.46336"
       r="15.96"
       fill="#cbdae3"
       id="circle6268" />
    <circle
       cx="813.21985"
       cy="238.46336"
       r="10.46"
       fill="#e9e9e9"
       id="circle6270" />
    <circle
       cx="813.21985"
       cy="238.46336"
       r="3.1900001"
       fill="#f48681"
       id="circle6272" />
    <rect
       x="837.71527"
       y="31.364929"
       width="12.77"
       height="0.46000001"
       transform="rotate(11.05)"
       opacity="0.05"
       id="rect6274" />
    <rect
       x="465.23831"
       y="683.71198"
       width="15.51"
       height="37.860001"
       rx="7.75"
       ry="7.75"
       transform="rotate(-25.74)"
       fill="#cbdae3"
       id="rect6276" />
    <g
       opacity="0.1"
       id="g6280"
       transform="translate(391.81988,103.38335)">
      <rect
         x="454.14999"
         y="414.89999"
         width="15.51"
         height="37.860001"
         rx="7.75"
         ry="7.75"
         transform="rotate(-25.74,160.56654,647.0875)"
         id="rect6278" />
    </g>
    <rect
       x="466.61044"
       y="683.71185"
       width="15.96"
       height="37.860001"
       rx="7.98"
       ry="7.98"
       transform="rotate(-25.74)"
       fill="#cbdae3"
       id="rect6282" />
    <rect
       x="468.54941"
       y="686.44604"
       width="12.06"
       height="28.73"
       transform="rotate(-25.74)"
       fill="#f2f2f2"
       id="rect6284" />
    <ellipse
       cx="474.81131"
       cy="718.37549"
       rx="1.37"
       ry="1.8200001"
       transform="rotate(-25.74)"
       fill="#f2f2f2"
       id="ellipse6286" />
  </g>
  <path
     d="m 421.89903,645.97051 a 38.40966,38.40966 0 0 0 -3.3287,-15.9369 38.17241,38.17241 0 0 0 -11.3053,12.82783 38.17229,38.17229 0 0 0 -11.3054,-12.82778 38.40966,38.40966 0 0 0 -3.3286,15.9369 38.45748,38.45748 0 0 0 -15.366,-4.73533 c 0,0 1.0118,12.39687 9.2961,20.46128 7.3659,7.17041 18.0005,8.50131 20.2679,8.70829 l 0.063,0.0433 0.017,-0.0362 c 0.2301,0.0201 0.3552,0.0271 0.3552,0.0271 0,0 -0.019,-0.23439 -0.073,-0.65746 0.023,-0.0545 0.048,-0.11256 0.073,-0.17333 0.025,0.0608 0.05,0.11883 0.073,0.17334 -0.054,0.42306 -0.073,0.65745 -0.073,0.65745 0,0 0.1251,-0.007 0.3552,-0.0271 l 0.017,0.0362 0.063,-0.0433 c 2.2674,-0.207 12.902,-1.53787 20.2679,-8.70829 8.2842,-8.06441 9.2961,-20.46128 9.2961,-20.46128 a 38.45748,38.45748 0 0 0 -15.366,4.73528 z"
     fill="#f9a826"
     id="path6521" />
  <g
     id="g11944"
     transform="matrix(0.77975021,0,0,0.77975021,394.79366,61.135325)">
    <polygon
       points="488.023,576.744 509.886,559.74 495.311,541.52 473.448,554.881 "
       fill="#ffb8b8"
       id="polygon6531"
       transform="translate(-657.34802,142.87453)" />
    <path
       d="m -166.50923,707.8877 c 0,0 -20.8743,0.97029 -14.9902,12.00457 5.8841,11.03428 10.47435,73.29644 27.26835,69.68887 16.794,-3.60757 32.02057,-22.69049 31.834,-35.82712 -0.18657,-13.13663 -2.28893,-18.83415 -2.28893,-18.83415 0,0 -4.50326,-8.69557 -1.50522,-11.09648 2.99804,-2.40091 4.1301,-17.5777 -3.01044,-22.19295 -7.14054,-4.61525 -27.7785,-10.72334 -27.7785,-10.72334 0,0 -2.08994,18.89637 -9.52906,16.9806 z"
       fill="#2f2e41"
       id="path6533" />
    <polygon
       points="496.525,632.616 522.032,635.045 522.032,614.397 501.384,605.895 "
       fill="#ffb8b8"
       id="polygon6535"
       transform="translate(-657.34802,142.87453)" />
    <path
       d="m -208.19221,386.81694 c 0,0 -13.36065,44.94036 -17.00447,71.66166 0,0 -72.87626,98.383 -59.51561,140.89411 13.36065,42.51111 52.228,127.53347 52.228,127.53347 0,0 65.58864,-26.7213 78.94929,-41.29655 l -48.58418,-69.23245 c 0,0 7.28763,-8.50223 -3.64381,-13.36065 -10.93144,-4.85842 -1.21461,-10.93144 -1.21461,-10.93144 0,0 20.64828,-69.23245 41.29655,-76.52008 l 71.66166,-14.57525 c 0,0 -4.85842,-103.24138 -21.86288,-121.46045 -10e-6,0 -85.02232,1.21461 -92.30994,7.28763 z"
       fill="#2f2e41"
       id="path6537" />
    <path
       d="m -149.8912,764.55892 c 0,0 -12.146,-17.00447 -18.21907,-6.073 -6.07307,10.93147 -55.87175,48.58418 -43.72575,60.73018 12.146,12.146 36.43814,14.57525 47.36958,7.28762 10.93144,-7.28763 14.57525,-12.146 14.57525,-12.146 0,0 4.85842,-8.50223 8.50223,-7.28763 3.64381,1.2146 17.00446,-6.073 17.00446,-14.57525 0,-8.50225 -6.073,-29.15051 -6.073,-29.15051 0,0 -17.00452,8.50221 -19.4337,1.21459 z"
       fill="#2f2e41"
       id="path6539" />
    <path
       d="m -168.11027,507.06278 17.00446,146.96713 c 0,0 -9.71683,41.29655 -12.146,72.87627 -2.42917,31.57972 0,30.36511 0,30.36511 0,0 54.6572,21.86288 64.374,7.28763 9.7168,-14.57525 4.85842,-263.56916 4.85842,-263.56916 l -29.1505,-26.7213 z"
       fill="#2f2e41"
       id="path6541" />
    <path
       d="m -197.76167,178.96624 c 12.60928,-29.75165 44.707,-35.37054 44.707,-35.37054 0,0 30.90545,-8.2449 56.71559,31.02107 24.05712,36.59912 55.08021,70.88925 15.73675,85.49774 l -10.3926,-21.82606 -1.24675,25.11827 a 160.17971,160.17971 0 0 1 -17.3201,2.62842 c -43.63952,4.43335 -84.77656,11.80475 -85.53844,-3.96629 -1.0128,-20.96536 -14.7941,-54.47557 -2.66145,-83.10261 z"
       fill="#2f2e41"
       id="path6543" />
    <circle
       cx="-146.24741"
       cy="202.19707"
       r="35.22353"
       fill="#ffb8b8"
       id="circle6545" />
    <path
       d="m -156.57153,224.66725 c 0,0 -0.6073,35.83083 -4.25111,44.33306 -3.64381,8.50223 64.98134,-6.68032 64.98134,-6.68032 0,0 -24.29209,-17.00446 -27.93591,-40.082 z"
       fill="#ffb8b8"
       id="path6547" />
    <path
       d="m -151.10581,254.4251 -6.6331,-4.87866 -46.80949,2.44945 -9.71684,106.88519 c 0,0 -27.9359,32.79432 6.073,32.79432 34.0089,0 65.58864,-15.78986 89.88072,-4.85842 24.29208,10.93144 44.9404,-115.38746 44.9404,-115.38746 l -36.3129,-21.88312 c 0,0 -15.91509,19.45391 -41.42179,4.8787 z"
       fill="#575a89"
       id="path6549" />
    <path
       d="m -191.18775,340.66197 68.01785,14.57526 v 15.78987 l -68.01785,2.42921 c 0,0 -7.28763,-27.93592 0,-32.79434 z"
       fill="#ffb8b8"
       id="path6551" />
    <path
       d="m -191.18775,258.06887 -13.36065,-6.073 c 0,0 -15.78986,3.64381 -17.00446,17.00446 -1.2146,13.36065 -24.29209,99.59756 -6.073,103.24138 18.21909,3.64382 42.51115,3.64381 42.51115,3.64381 0,0 -15.78986,-21.86288 3.64381,-34.00892 l -14.57525,-7.28763 c 0,0 -14.57525,-32.79432 -4.85842,-49.79878 9.71683,-17.00446 9.71682,-26.72132 9.71682,-26.72132 z"
       fill="#575a89"
       id="path6553" />
    <polygon
       points="523.226,54.793 512.67,54.387 506.542,30.644 502.713,55.919 465.184,55.153 466.716,25.283 498.883,8.433 543.306,15.326 552.496,55.919 529.618,55.039 523.226,40.126 "
       fill="#2f2e41"
       id="polygon6555"
       transform="translate(-657.34802,142.87453)" />
    <ellipse
       cx="-110.82141"
       cy="198.76256"
       rx="6.47786"
       ry="11.33626"
       fill="#ffb8b8"
       id="ellipse6557" />
    <circle
       cx="-110.19879"
       cy="202.36684"
       r="4.4208899"
       fill="#ffffff"
       id="circle6559" />
    <ellipse
       cx="-108.30054"
       cy="201.70111"
       rx="0.71864998"
       ry="2.1559501"
       fill="#2f2e41"
       id="ellipse6561" />
    <path
       d="m -108.41497,215.1989 v 0 a 1.131,1.131 0 0 1 -1.131,-1.131 l -1.131,-9.04832 h 3.39312 v 9.04832 a 1.131,1.131 0 0 1 -1.13112,1.131 z"
       fill="#ffffff"
       id="path6563" />
    <polygon
       points="449.254,197.85 476.016,197.85 454.989,193.071 460.723,148.149 "
       opacity="0.1"
       id="polygon6565"
       transform="translate(-657.34802,142.87453)" />
    <path
       d="m -58.45377,373.12643 -0.25428,-0.22917 6.27805,-6.966 a 5.42748,5.42748 0 0 0 -0.39814,-7.66529 L -67.58645,344.9651 a 5.42746,5.42746 0 0 0 -7.66528,0.39813 l -34.44188,38.21576 a 5.42747,5.42747 0 0 0 0.39814,7.66529 l 14.75831,13.30089 a 5.42746,5.42746 0 0 0 7.66528,-0.39813 l 23.695,-26.29132 0.25428,0.22917 z"
       fill="#3f3d56"
       id="path6567" />
    <circle
       cx="-70.031738"
       cy="362.77216"
       r="3.4975901"
       fill="#f9a826"
       id="circle6569" />
    <path
       d="m -94.28526,360.66387 c 0,0 41.40429,10.02128 31.86466,24.30946 -9.53963,14.28818 -47.20249,-11.8275 -47.20249,-11.8275 z"
       fill="#ffb8b8"
       id="path6571" />
    <path
       d="m -84.30256,271.42952 h 10.93144 c 0,0 12.146,13.36065 9.71683,25.50669 -2.42917,12.14604 -9.71683,69.23246 -9.71683,69.23246 0,0 -36.43814,34.00892 -54.6572,15.78985 -18.21906,-18.21907 -4.85842,-35.22353 -4.85842,-35.22353 0,0 24.29209,19.43368 37.65274,-6.073 z"
       fill="#575a89"
       id="path6573" />
    <path
       d="m -95.16602,354.23971 8.36576,-82.65247 c 0,0 17.54742,-52.17864 0.418,-53.45749 -17.12942,-1.27885 -18.33264,49.44478 -18.33264,49.44478 l -29.83367,90.44266 c 0,0 16.37217,16.03574 39.38255,-3.77748 z"
       fill="#ffb8b8"
       id="path6575" />
  </g>
  <path
     d="m 576.4901,657.32556 18.87054,-27.34807 -18.86825,30.31458 v 3.10284 q -2.03043,-0.009 -4.02016,-0.11586 l 1.39796,-39.86792 -0.0213,-0.30795 0.0344,-0.059 0.13329,-3.76727 -19.94964,-29.7215 19.95946,26.90085 0.0622,0.79737 1.05607,-30.12179 -17.16993,-30.77224 17.28332,25.47985 0.56524,-62.42402 v -0.20776 0.2044 l 0.57393,49.21076 16.22213,-19.79204 -16.22074,24.03086 0.0254,26.95486 15.02271,-26.12641 -15.01616,30.08928 0.0147,14.98827 21.82767,-36.38298 -21.82538,41.61171 z"
     fill="#d0cde1"
     id="path6515"
     style="stroke-width:0.818721" />
</svg>
